<mxfile host="app.diagrams.net" modified="2022-10-10T13:43:39.403Z" agent="5.0 (Windows NT 6.1; WOW64) AppleWebKit/537.36 (KHTML, like Gecko) Chrome/86.0.4240.198 Safari/537.36" etag="49ToPkHpSEvNWgUnJyx5" version="20.4.0" type="github">
  <diagram id="6QDKSPnrTSgEelVW4R3N" name="第 1 页">
    <mxGraphModel dx="1422" dy="1909" grid="1" gridSize="10" guides="1" tooltips="1" connect="1" arrows="1" fold="1" page="1" pageScale="1" pageWidth="827" pageHeight="1169" math="0" shadow="0">
      <root>
        <mxCell id="0" />
        <mxCell id="1" parent="0" />
        <mxCell id="wRb3nrnMmlGAktsx-6lQ-19" value="" style="group" parent="1" vertex="1" connectable="0">
          <mxGeometry x="61" y="20" width="180" height="320" as="geometry" />
        </mxCell>
        <mxCell id="wRb3nrnMmlGAktsx-6lQ-20" value="" style="rounded=0;whiteSpace=wrap;html=1;" parent="wRb3nrnMmlGAktsx-6lQ-19" vertex="1">
          <mxGeometry width="180" height="320" as="geometry" />
        </mxCell>
        <mxCell id="wRb3nrnMmlGAktsx-6lQ-21" value="" style="rounded=0;whiteSpace=wrap;html=1;fillColor=#000000;fillStyle=hatch;gradientColor=none;strokeColor=#1A1A1A;" parent="wRb3nrnMmlGAktsx-6lQ-19" vertex="1">
          <mxGeometry x="7.5" y="7.5" width="165" height="305" as="geometry" />
        </mxCell>
        <mxCell id="wRb3nrnMmlGAktsx-6lQ-1" value="" style="rounded=0;whiteSpace=wrap;html=1;fillColor=none;" parent="1" vertex="1">
          <mxGeometry x="520" y="-10" width="660" height="380" as="geometry" />
        </mxCell>
        <mxCell id="wRb3nrnMmlGAktsx-6lQ-2" value="" style="group" parent="1" vertex="1" connectable="0">
          <mxGeometry x="520" y="-10" width="660" height="380" as="geometry" />
        </mxCell>
        <mxCell id="DnedYTSctudwAIyVeCfP-8" value="" style="rounded=0;whiteSpace=wrap;html=1;fillStyle=hatch;strokeColor=#1A1A1A;fillColor=none;gradientColor=none;" parent="wRb3nrnMmlGAktsx-6lQ-2" vertex="1">
          <mxGeometry x="10" y="10" width="640" height="360" as="geometry" />
        </mxCell>
        <mxCell id="DnedYTSctudwAIyVeCfP-10" value="" style="rounded=0;whiteSpace=wrap;html=1;fillStyle=hatch;strokeColor=#1A1A1A;fillColor=#000000;gradientColor=none;" parent="wRb3nrnMmlGAktsx-6lQ-2" vertex="1">
          <mxGeometry x="228.75" y="10" width="202.5" height="360" as="geometry" />
        </mxCell>
        <mxCell id="DnedYTSctudwAIyVeCfP-3" value="" style="group" parent="1" vertex="1" connectable="0">
          <mxGeometry x="61" y="20" width="180" height="320" as="geometry" />
        </mxCell>
        <mxCell id="DnedYTSctudwAIyVeCfP-1" value="" style="rounded=0;whiteSpace=wrap;html=1;" parent="DnedYTSctudwAIyVeCfP-3" vertex="1">
          <mxGeometry width="180" height="320" as="geometry" />
        </mxCell>
        <mxCell id="DnedYTSctudwAIyVeCfP-2" value="" style="rounded=0;whiteSpace=wrap;html=1;fillColor=#000000;fillStyle=hatch;gradientColor=none;strokeColor=#1A1A1A;" parent="DnedYTSctudwAIyVeCfP-3" vertex="1">
          <mxGeometry x="7.5" y="7.5" width="165" height="305" as="geometry" />
        </mxCell>
        <mxCell id="DnedYTSctudwAIyVeCfP-7" value="" style="endArrow=block;html=1;rounded=0;strokeWidth=2;endFill=1;" parent="1" edge="1">
          <mxGeometry width="50" height="50" relative="1" as="geometry">
            <mxPoint x="260" y="179.5" as="sourcePoint" />
            <mxPoint x="500" y="179.5" as="targetPoint" />
          </mxGeometry>
        </mxCell>
        <mxCell id="DnedYTSctudwAIyVeCfP-11" value="" style="endArrow=classic;startArrow=classic;html=1;rounded=0;strokeWidth=2;" parent="1" edge="1">
          <mxGeometry width="50" height="50" relative="1" as="geometry">
            <mxPoint x="530" y="388" as="sourcePoint" />
            <mxPoint x="1170" y="388" as="targetPoint" />
          </mxGeometry>
        </mxCell>
        <mxCell id="DnedYTSctudwAIyVeCfP-12" value="" style="endArrow=classic;startArrow=classic;html=1;rounded=0;strokeWidth=2;" parent="1" edge="1">
          <mxGeometry width="50" height="50" relative="1" as="geometry">
            <mxPoint x="1204" y="360" as="sourcePoint" />
            <mxPoint x="1204" as="targetPoint" />
          </mxGeometry>
        </mxCell>
        <mxCell id="DnedYTSctudwAIyVeCfP-13" value="W" style="text;html=1;resizable=0;autosize=1;align=center;verticalAlign=middle;points=[];fillColor=none;strokeColor=none;rounded=0;fillStyle=hatch;fontStyle=1;fontSize=16;" parent="1" vertex="1">
          <mxGeometry x="830" y="394" width="40" height="30" as="geometry" />
        </mxCell>
        <mxCell id="DnedYTSctudwAIyVeCfP-14" value="H" style="text;html=1;resizable=0;autosize=1;align=center;verticalAlign=middle;points=[];fillColor=none;strokeColor=none;rounded=0;fillStyle=hatch;fontStyle=1;fontSize=16;" parent="1" vertex="1">
          <mxGeometry x="1213" y="165" width="40" height="30" as="geometry" />
        </mxCell>
        <mxCell id="wRb3nrnMmlGAktsx-6lQ-5" style="edgeStyle=orthogonalEdgeStyle;rounded=0;orthogonalLoop=1;jettySize=auto;html=1;exitX=0.25;exitY=0;exitDx=0;exitDy=0;entryX=0.236;entryY=1.139;entryDx=0;entryDy=0;entryPerimeter=0;" parent="1" source="DnedYTSctudwAIyVeCfP-1" target="wRb3nrnMmlGAktsx-6lQ-31" edge="1">
          <mxGeometry relative="1" as="geometry">
            <mxPoint x="106.15789473684208" y="-70" as="targetPoint" />
          </mxGeometry>
        </mxCell>
        <mxCell id="wRb3nrnMmlGAktsx-6lQ-7" style="edgeStyle=orthogonalEdgeStyle;rounded=0;orthogonalLoop=1;jettySize=auto;html=1;exitX=0.75;exitY=0;exitDx=0;exitDy=0;fontSize=15;entryX=0.31;entryY=1.154;entryDx=0;entryDy=0;entryPerimeter=0;" parent="1" source="DnedYTSctudwAIyVeCfP-2" target="wRb3nrnMmlGAktsx-6lQ-22" edge="1">
          <mxGeometry relative="1" as="geometry">
            <mxPoint x="230" y="-10" as="targetPoint" />
          </mxGeometry>
        </mxCell>
        <mxCell id="wRb3nrnMmlGAktsx-6lQ-10" style="edgeStyle=orthogonalEdgeStyle;rounded=0;orthogonalLoop=1;jettySize=auto;html=1;exitX=0;exitY=0;exitDx=0;exitDy=0;fontSize=15;entryX=0.225;entryY=1.084;entryDx=0;entryDy=0;entryPerimeter=0;" parent="1" source="wRb3nrnMmlGAktsx-6lQ-1" target="wRb3nrnMmlGAktsx-6lQ-11" edge="1">
          <mxGeometry relative="1" as="geometry">
            <mxPoint x="519.8421052631579" y="-90" as="targetPoint" />
          </mxGeometry>
        </mxCell>
        <mxCell id="wRb3nrnMmlGAktsx-6lQ-11" value="Sink端屏幕" style="text;html=1;align=center;verticalAlign=middle;resizable=0;points=[];autosize=1;strokeColor=default;fillColor=none;fontSize=15;" parent="1" vertex="1">
          <mxGeometry x="497" y="-149" width="100" height="30" as="geometry" />
        </mxCell>
        <mxCell id="wRb3nrnMmlGAktsx-6lQ-13" style="edgeStyle=orthogonalEdgeStyle;rounded=0;orthogonalLoop=1;jettySize=auto;html=1;exitX=0.25;exitY=0;exitDx=0;exitDy=0;fontSize=15;entryX=0.147;entryY=1.04;entryDx=0;entryDy=0;entryPerimeter=0;" parent="1" source="DnedYTSctudwAIyVeCfP-8" target="wRb3nrnMmlGAktsx-6lQ-14" edge="1">
          <mxGeometry relative="1" as="geometry">
            <mxPoint x="690.3684210526317" y="-50" as="targetPoint" />
          </mxGeometry>
        </mxCell>
        <mxCell id="wRb3nrnMmlGAktsx-6lQ-14" value="Sink端收到的Miracast图像" style="text;html=1;align=center;verticalAlign=middle;resizable=0;points=[];autosize=1;strokeColor=default;fillColor=none;fontSize=15;" parent="1" vertex="1">
          <mxGeometry x="660" y="-112" width="200" height="30" as="geometry" />
        </mxCell>
        <mxCell id="wRb3nrnMmlGAktsx-6lQ-15" style="edgeStyle=orthogonalEdgeStyle;rounded=0;orthogonalLoop=1;jettySize=auto;html=1;exitX=0.5;exitY=0;exitDx=0;exitDy=0;fontSize=15;entryX=0.241;entryY=1.058;entryDx=0;entryDy=0;entryPerimeter=0;" parent="1" source="DnedYTSctudwAIyVeCfP-10" target="wRb3nrnMmlGAktsx-6lQ-16" edge="1">
          <mxGeometry relative="1" as="geometry">
            <mxPoint x="850.3684210526317" y="-40" as="targetPoint" />
          </mxGeometry>
        </mxCell>
        <mxCell id="wRb3nrnMmlGAktsx-6lQ-16" value="Sink端收到的Miracast图像中的有效内容区域" style="text;html=1;align=center;verticalAlign=middle;resizable=0;points=[];autosize=1;strokeColor=default;fillColor=none;fontSize=15;" parent="1" vertex="1">
          <mxGeometry x="773" y="-76" width="320" height="30" as="geometry" />
        </mxCell>
        <mxCell id="wRb3nrnMmlGAktsx-6lQ-22" value="Source端移动设备屏幕画面" style="text;html=1;align=center;verticalAlign=middle;resizable=0;points=[];autosize=1;strokeColor=default;fillColor=none;fontSize=15;" parent="1" vertex="1">
          <mxGeometry x="127" y="-60" width="210" height="30" as="geometry" />
        </mxCell>
        <mxCell id="wRb3nrnMmlGAktsx-6lQ-31" value="Source端移动设备屏幕" style="text;html=1;align=center;verticalAlign=middle;resizable=0;points=[];autosize=1;strokeColor=default;fillColor=none;fontSize=15;" parent="1" vertex="1">
          <mxGeometry x="64" y="-149" width="180" height="30" as="geometry" />
        </mxCell>
      </root>
    </mxGraphModel>
  </diagram>
</mxfile>
